<?xml version="1.0" encoding="utf-8"?>
<!-- Generator: Adobe Illustrator 26.3.1, SVG Export Plug-In . SVG Version: 6.00 Build 0)  -->
<svg version="1.1" id="Layer_1" xmlns="http://www.w3.org/2000/svg" xmlns:xlink="http://www.w3.org/1999/xlink" x="0px" y="0px"
	 viewBox="0 0 127 127" style="enable-background:new 0 0 127 127;" xml:space="preserve">
<style type="text/css">
	.st0{fill:#9A58D5;}
</style>
<g>
	<path class="st0" d="M63.5,127C28.49,127,0,98.51,0,63.5S28.49,0,63.5,0C98.51,0,127,28.49,127,63.5S98.51,127,63.5,127z
		 M63.5,3.34C30.33,3.34,3.34,30.33,3.34,63.5s26.99,60.16,60.16,60.16s60.16-26.99,60.16-60.16S96.67,3.34,63.5,3.34z"/>
	<g>
		<g>
			<g>
				<g>
					<polygon class="st0" points="82.29,34.41 82.29,27.58 67.48,47.5 					"/>
				</g>
				<polygon class="st0" points="86.95,32.81 67.48,50.35 67.48,51.37 86.95,39.76 				"/>
				<g>
					<path class="st0" d="M65.63,60.37c-0.2-0.05-0.36-0.08-0.51-0.08c-0.04,0-0.07,0-0.11,0c-0.02,0-0.03,0-0.05,0
						c-0.04,0-0.08,0-0.13-0.01c-0.18-0.04-0.36-0.06-0.55-0.06c-0.06,0-0.12,0-0.18,0.01c-0.01,0-0.03,0-0.04,0l-0.91,0
						c-0.8,0-1.6,0.09-2.37,0.26c-0.02,0-0.03,0.01-0.05,0.01c-0.48,0.06-0.87,0.16-1.22,0.29v28.87c0.37,0.12,0.77,0.21,1.22,0.27
						c0.02,0,0.04,0.01,0.06,0.01l0.03,0.01c0.23,0.06,0.45,0.11,0.64,0.11c0,0,0.07,0,0.08,0c0.07,0,0.14,0.01,0.21,0.04
						c0.11,0.04,0.25,0.05,0.38,0.05c0,0,0.22,0,0.22,0c0.05,0,0.11,0.01,0.16,0.02c0.11,0.03,0.24,0.05,0.41,0.05
						c0.1,0,0.2,0,0.3-0.01c0,0,0.83,0,0.84,0c0.01,0,0.03,0,0.04,0c0.06,0,0.11,0.01,0.17,0.01c0.18,0,0.36-0.02,0.56-0.06
						c0.04-0.01,0.08-0.01,0.12-0.01c0.02,0,0.04,0,0.05,0c0.03,0,0.07,0,0.1,0c0.17,0,0.36-0.04,0.52-0.08
						c0.04-0.01,0.07-0.01,0.11-0.02c0.28-0.01,0.52-0.05,0.73-0.13c0.06-0.02,0.12-0.03,0.19-0.03c0.13,0,0.27-0.03,0.43-0.1
						c0.04-0.02,0.08-0.03,0.13-0.04l0.13-0.02l0.14-0.04v-8.92c-0.21-0.16-0.38-0.29-0.38-0.29c-0.01-0.01-0.03-0.02-0.04-0.03
						l-0.77-0.62c-1.07-0.89-2.22-1.82-3.38-2.7l-0.09-0.07c-0.02-0.02-0.04-0.04-0.06-0.05c-0.08-0.08-0.16-0.15-0.25-0.23
						c-0.22-0.19-0.48-0.41-0.65-0.73c-0.02-0.03-0.03-0.07-0.05-0.11l-0.06-0.19c-0.01-0.04-0.02-0.09-0.02-0.13l-0.05-0.68
						c0-0.01,0-0.03,0-0.04l0-9.42l0-0.8c0-0.04,0-0.1,0.01-0.14c0.16-0.74,0.63-1.28,1.35-1.54c0.06-0.02,0.13-0.04,0.2-0.04
						c0,0,0.69,0.02,0.69,0.02c0.09,0,0.19,0.03,0.27,0.07l0.54,0.3c0.06,0.03,0.11,0.08,0.16,0.13c0.2,0.23,0.36,0.49,0.49,0.81
						c0.02,0.04,0.03,0.08,0.04,0.13l0.03,0.16c0.01,0.03,0.01,0.06,0.01,0.09l0,0.81v8.5c0.01,0.12-0.01,0.23-0.02,0.32
						c0,0,0,0.01,0,0.01c0.55,0.43,1.1,0.87,1.65,1.3l0.38,0.3V60.74c-0.5-0.16-1.06-0.27-1.78-0.35
						C65.68,60.38,65.65,60.38,65.63,60.37z"/>
					<g>
						<polygon class="st0" points="44.71,27.58 44.71,34.41 59.51,47.5 						"/>
						<polygon class="st0" points="40.05,39.76 59.51,51.37 59.51,50.35 40.05,32.81 						"/>
						<path class="st0" d="M33.21,83.48l26.3,15.94v-5.87l-0.69-0.15c-0.02,0-0.04-0.01-0.06-0.01l-1.71-0.55l-0.74-0.28
							c-0.06-0.02-0.12-0.06-0.17-0.1c-0.03-0.03-0.14-0.05-0.17-0.06c-0.03-0.01-0.07-0.02-0.1-0.04c0,0-0.5-0.23-0.51-0.24
							c0,0-0.93-0.49-0.94-0.49c-0.91-0.54-1.8-1.15-2.65-1.8l-0.16-0.13l-0.58-0.5l-0.27-0.25l-0.75-0.75l-0.16-0.17l-0.67-0.75
							l-0.08-0.1c-0.73-0.96-1.33-1.82-1.85-2.66c-0.01-0.02-0.03-0.05-0.04-0.07c-0.1-0.22-0.22-0.44-0.35-0.66
							c-0.19-0.33-0.38-0.68-0.52-1.08l-0.33-0.79c-0.01-0.02-0.02-0.04-0.02-0.06l-0.02-0.07c-0.06-0.19-0.11-0.37-0.19-0.51
							c-0.03-0.05-0.05-0.1-0.06-0.15l-0.05-0.17l-0.23-0.79c-0.04-0.12-0.06-0.26-0.08-0.37c-0.02-0.14-0.04-0.26-0.09-0.31
							c-0.07-0.09-0.11-0.19-0.13-0.3l-0.08-0.67c-0.07-0.55-0.13-1.11-0.2-1.66c-0.03-0.26-0.04-0.51-0.06-0.77
							c-0.01-0.11-0.01-0.22-0.02-0.33c0-0.01,0-0.03,0-0.04l0-0.81l0.03-1.08c0-0.07,0.02-0.14,0.05-0.21
							c0.04-0.08,0.03-0.22,0.03-0.38c0-0.04,0-0.11,0.01-0.15l0.49-2.6c0-0.02,0.01-0.04,0.01-0.06l0.33-1.14
							c0.01-0.02,0.01-0.04,0.02-0.06c0.07-0.18,0.15-0.36,0.22-0.53c0.17-0.41,0.34-0.84,0.53-1.25c0.03-0.06,0.06-0.13,0.09-0.2
							c0.2-0.45,0.42-0.96,0.91-1.33c0.05-0.04,0.1-0.07,0.15-0.09c0.01,0,0.01-0.01,0.02-0.01c0.3-0.14,0.64-0.21,1-0.21l0.07,0
							c0.03,0,0.06,0,0.09,0.01c0.75,0.14,1.29,0.61,1.56,1.37c0.02,0.04,0.03,0.09,0.03,0.13c0.04,0.39,0,0.77-0.13,1.14
							c-0.01,0.02-0.01,0.03-0.02,0.05l-0.23,0.49c-0.01,0.02-0.02,0.04-0.03,0.05c-0.19,0.31-0.33,0.63-0.42,0.97
							c-0.01,0.04-0.03,0.08-0.05,0.11c-0.12,0.23-0.21,0.48-0.26,0.75c-0.01,0.06-0.03,0.13-0.07,0.18c0,0.06-0.02,0.11-0.03,0.16
							c-0.25,0.67-0.4,1.39-0.47,2.19c0,0.06-0.02,0.12-0.04,0.17c-0.04,0.1-0.04,0.24-0.04,0.4c0,0.08,0,0.15-0.01,0.23
							c0,0.04-0.01,0.07-0.02,0.11c-0.05,0.21-0.04,0.46-0.03,0.72c0,0.01,0,0.84,0,0.84l0,0.08c-0.01,0.25-0.02,0.46,0.04,0.64
							c0.02,0.06,0.03,0.13,0.03,0.2c-0.01,0.2-0.01,0.42,0.06,0.59c0.02,0.05,0.03,0.09,0.03,0.14c0.07,0.77,0.22,1.44,0.45,2.04
							c0.03,0.08,0.04,0.16,0.04,0.24c0,0,0.02,0.06,0.04,0.09c0.01,0.03,0.03,0.07,0.04,0.1c0,0.01,0.05,0.16,0.05,0.16
							c0.06,0.21,0.11,0.39,0.2,0.53c0.03,0.04,0.05,0.09,0.06,0.14c0.11,0.39,0.27,0.76,0.49,1.11c0.04,0.06,0.06,0.12,0.08,0.19
							c0.01,0.06,0.05,0.13,0.12,0.22c0.03,0.03,0.05,0.07,0.07,0.11c0.37,0.77,0.85,1.49,1.4,2.15c0.03,0.04,0.06,0.08,0.08,0.13
							c0.02,0.04,0.05,0.07,0.08,0.1c0.06,0.04,0.1,0.09,0.14,0.15c0.12,0.19,0.27,0.36,0.45,0.52c0.05,0.05,0.1,0.1,0.13,0.17
							c0.07,0.04,0.14,0.12,0.19,0.18c0.13,0.18,0.28,0.32,0.45,0.44c0.06,0.05,0.12,0.11,0.16,0.18c0.07,0.03,0.15,0.09,0.2,0.15
							c0.14,0.16,0.31,0.31,0.5,0.43c0.02,0.02,0.05,0.03,0.07,0.05c0.51,0.45,1.04,0.82,1.59,1.11c0.03,0.01,0.05,0.03,0.08,0.05
							c0.22,0.16,0.47,0.31,0.77,0.44c0.02,0.01,0.04,0.02,0.06,0.03c0.53,0.3,1.01,0.52,1.48,0.66c0.03,0.01,0.07,0.02,0.1,0.04
							c0.24,0.13,0.5,0.21,0.76,0.26c0.04,0.01,0.08,0.02,0.11,0.03c0.11,0.04,0.23,0.09,0.35,0.12V60.79
							c-0.03,0.01-0.07,0.02-0.1,0.04c-0.06,0.02-0.12,0.04-0.18,0.04c-0.05,0.03-0.11,0.05-0.17,0.06
							c-0.3,0.06-0.54,0.14-0.75,0.25c-0.04,0.02-0.08,0.04-0.12,0.05c-0.4,0.11-0.79,0.28-1.16,0.51
							c-0.06,0.04-0.14,0.06-0.21,0.08c-0.01,0.01-0.01,0.01-0.02,0.02c-0.04,0.03-0.08,0.06-0.12,0.08
							c-0.57,0.27-1.11,0.59-1.58,0.95c-0.02,0.02-0.05,0.03-0.07,0.05c-0.27,0.15-0.45,0.29-0.6,0.44
							c-0.02,0.03-0.05,0.05-0.08,0.07l-0.17,0.12c-0.31,0.22-0.53,0.41-0.7,0.61c-0.02,0.02-0.04,0.04-0.06,0.06l-0.11,0.1
							c-0.07,0.06-0.13,0.11-0.2,0.17c-0.48,0.46-0.98,0.69-1.48,0.69c-0.43,0-1.05-0.17-1.64-0.98c-0.03-0.04-0.05-0.08-0.07-0.13
							l-0.08-0.21c-0.02-0.06-0.04-0.13-0.04-0.19l-0.02-0.68c0-0.09,0.02-0.18,0.05-0.26l0.18-0.4c0.03-0.06,0.06-0.11,0.1-0.15
							l0.46-0.5c0.01-0.01,0.02-0.02,0.03-0.03l0.43-0.4c0.02-0.02,0.04-0.04,0.07-0.05c0.13-0.08,0.25-0.18,0.34-0.29
							c0.03-0.03,0.06-0.07,0.09-0.09l0.24-0.19l0.91-0.7c0.01-0.01,0.02-0.02,0.04-0.03l1.23-0.81c0.05-0.03,0.11-0.06,0.16-0.07
							c0.07-0.02,0.16-0.08,0.26-0.16c0.03-0.03,0.07-0.05,0.1-0.06l1.8-0.88c0.02-0.01,0.04-0.02,0.06-0.02l1.61-0.58
							c0.01,0,0.02-0.01,0.04-0.01l0.81-0.24c0.02-0.01,0.04-0.01,0.06-0.01l0.67-0.12v-2.69l-26.3-16.68V83.48z"/>
					</g>
					<path class="st0" d="M67.81,76.17c0.01,0.01,0.02,0.02,0.03,0.03c0.24,0.22,0.53,0.47,0.84,0.66c0.02,0.01,0.04,0.02,0.05,0.04
						l0.08,0.07c0.02,0.01,0.03,0.03,0.04,0.04c0.19,0.19,0.4,0.36,0.63,0.5c0.02,0.01,0.04,0.03,0.06,0.04l0.45,0.37
						c0.36,0.29,0.72,0.59,1.08,0.88c0.25,0.2,0.62,0.53,0.8,1.03c0.01,0.02,0.01,0.04,0.02,0.06c0.09,0.34,0.09,0.7,0,1.05
						c0,0.02-0.01,0.04-0.02,0.06c-0.12,0.36-0.35,0.61-0.54,0.84c-0.04,0.05-0.11,0.11-0.17,0.14c-0.29,0.16-0.63,0.32-1.06,0.34
						c-0.01,0-0.02,0-0.03,0c-0.02,0-0.04,0-0.06,0c-0.27-0.03-0.66-0.09-1-0.34c-0.23-0.17-0.45-0.35-0.68-0.52
						c0,0-0.49-0.39-0.85-0.67v8.92l0.83-0.24c0.21-0.06,0.42-0.12,0.58-0.21c0.05-0.03,0.11-0.05,0.16-0.07
						c0.2-0.05,0.38-0.12,0.56-0.23c0.05-0.03,0.1-0.05,0.15-0.06c0.04-0.03,0.09-0.05,0.13-0.07c0.24-0.08,0.47-0.19,0.67-0.33
						c0.03-0.02,0.07-0.04,0.11-0.06c0.23-0.09,0.42-0.2,0.59-0.34c0.04-0.04,0.09-0.06,0.14-0.08c0.04-0.03,0.09-0.06,0.14-0.09
						c0.21-0.09,0.41-0.24,0.62-0.4l0.11-0.08c1.74-1.26,3.05-2.67,4.03-4.32c0.02-0.03,0.03-0.05,0.05-0.08
						c0.02-0.05,0.05-0.1,0.08-0.14c0.13-0.17,0.24-0.36,0.33-0.58c0.02-0.04,0.04-0.08,0.06-0.11c0.14-0.21,0.25-0.44,0.33-0.67
						c0.02-0.05,0.04-0.1,0.07-0.14c0.01-0.05,0.04-0.1,0.06-0.14c0.11-0.18,0.19-0.36,0.23-0.56c0.01-0.06,0.03-0.11,0.06-0.16
						c0.1-0.17,0.16-0.38,0.22-0.61l0.27-0.94l0.02-0.13c0.01-0.04,0.02-0.09,0.04-0.13c0.07-0.15,0.1-0.29,0.1-0.43
						c0-0.06,0.01-0.12,0.03-0.18c0.07-0.21,0.11-0.45,0.13-0.73c0-0.04,0.01-0.07,0.02-0.11c0.05-0.2,0.09-0.42,0.07-0.62
						c-0.01-0.06,0-0.12,0.01-0.17c0.05-0.26,0.07-0.5,0.06-0.73c0-0.02,0-0.03,0-0.05l0-0.81c0.01-0.27,0.02-0.52-0.04-0.73
						c-0.02-0.05-0.02-0.11-0.02-0.17l0-0.07c0-0.21,0.01-0.39-0.05-0.52c-0.03-0.08-0.04-0.16-0.04-0.24
						c0.01-0.21-0.05-0.45-0.11-0.7l-0.01-0.03c0-0.02-0.01-0.04-0.01-0.06c-0.08-0.6-0.21-1.11-0.39-1.57
						c-0.01-0.04-0.02-0.07-0.03-0.11c-0.05-0.26-0.13-0.52-0.26-0.76c-0.02-0.03-0.03-0.06-0.04-0.1
						c-0.14-0.47-0.36-0.95-0.66-1.48c-0.01-0.02-0.02-0.04-0.03-0.06c-0.13-0.3-0.27-0.55-0.44-0.77
						c-0.02-0.02-0.04-0.05-0.05-0.08c-0.29-0.55-0.66-1.07-1.11-1.59c-0.02-0.02-0.04-0.04-0.05-0.07
						c-0.12-0.19-0.26-0.35-0.43-0.5c-0.06-0.05-0.1-0.11-0.14-0.18c-0.07-0.04-0.14-0.11-0.19-0.18c-0.12-0.16-0.26-0.31-0.45-0.45
						c-0.06-0.05-0.12-0.11-0.16-0.18c-0.07-0.04-0.15-0.09-0.2-0.15c-0.13-0.16-0.3-0.3-0.51-0.45c-0.06-0.04-0.12-0.09-0.16-0.15
						c-0.01-0.01-0.02-0.03-0.09-0.06c-0.04-0.02-0.08-0.05-0.12-0.08c-0.62-0.54-1.33-1-2.15-1.41c-0.01-0.01-0.02-0.01-0.03-0.02
						c-0.59-0.34-1.1-0.58-1.59-0.73c-0.04-0.01-0.09-0.03-0.12-0.05c-0.17-0.1-0.38-0.16-0.6-0.22c0,0-0.08-0.02-0.09-0.03
						c-0.04-0.01-0.08-0.03-0.12-0.05c-0.04-0.01-0.08-0.03-0.1-0.04c-0.01,0-0.03,0-0.04,0c-0.06,0-0.12-0.01-0.18-0.04
						c-0.09-0.03-0.18-0.06-0.27-0.09v15.18L67.81,76.17z"/>
					<path class="st0" d="M67.48,54.22v2.62c0.08,0.02,0.13,0.03,0.14,0.03l0.88,0.22l0.83,0.24l0.13,0.03
						c0.06,0.01,0.12,0.03,0.17,0.06c0.17,0.1,0.38,0.16,0.58,0.21c0.03,0.01,0.05,0.02,0.08,0.03l0.8,0.33
						c0.39,0.14,0.73,0.33,1.07,0.51c0.23,0.13,0.45,0.25,0.67,0.35c0.02,0.01,0.05,0.02,0.07,0.04c0.82,0.5,1.65,1.07,2.54,1.75
						c0.04,0.03,0.07,0.06,0.1,0.1c0.04,0.02,0.08,0.05,0.12,0.08c0,0,0.74,0.66,0.75,0.67l0.17,0.16l0.74,0.75l0.25,0.27
						c0,0,0.51,0.59,0.51,0.59l0.12,0.15c0.66,0.86,1.27,1.76,1.81,2.66c0.01,0.01,0.49,0.94,0.49,0.94l0.24,0.51
						c0.02,0.03,0.03,0.07,0.04,0.1c0.01,0.03,0.03,0.14,0.06,0.17c0.04,0.05,0.08,0.11,0.1,0.17l0.27,0.72l0.56,1.73
						c0.01,0.02,0.01,0.04,0.01,0.06l0.19,0.89l0.15,0.83l0.14,0.91c0,0.03,0.01,0.05,0.01,0.08l0,0.14c0,0.2,0,0.37,0.04,0.5
						c0.02,0.05,0.03,0.1,0.03,0.16l0.03,0.89l0,0.83l-0.05,0.92l-0.08,0.84c0,0-0.13,0.94-0.13,0.95c0,0-0.16,0.83-0.17,0.84
						c0,0-0.23,0.91-0.23,0.92l-0.55,1.7c-0.01,0.02-0.01,0.03-0.02,0.05l-0.33,0.8l-0.03,0.08c-0.01,0.02-0.01,0.03-0.02,0.05
						c0,0-0.34,0.73-0.35,0.74l-0.48,0.91c0,0-0.11,0.19-0.11,0.2l-0.46,0.73c-0.01,0.01-0.01,0.02-0.02,0.03l-1.21,1.66
						c-0.01,0.01-0.05,0.07-0.05,0.07l-0.73,0.83c-0.01,0.01-0.02,0.02-0.03,0.03l-0.89,0.89c-0.01,0.01-0.02,0.02-0.03,0.03
						l-0.85,0.75c-0.01,0.01-0.03,0.02-0.04,0.03l-1.66,1.22c-0.01,0.01-0.02,0.02-0.03,0.02c0,0-0.75,0.48-0.76,0.48l-0.15,0.08
						c0,0-0.94,0.5-0.95,0.51l-0.72,0.33c-0.02,0.01-0.03,0.02-0.05,0.02l-0.08,0.03l-0.8,0.33c-0.02,0.01-0.03,0.01-0.05,0.02
						l-1.7,0.54c-0.01,0-0.02,0.01-0.03,0.01l-0.88,0.22c0,0-0.06,0.01-0.14,0.03v5.83l26.3-15.94V37.54L67.48,54.22z"/>
				</g>
			</g>
		</g>
	</g>
</g>
</svg>
